<mxfile host="Electron" modified="2023-11-08T08:32:40.565Z" agent="Mozilla/5.0 (X11; Linux x86_64) AppleWebKit/537.36 (KHTML, like Gecko) draw.io/22.0.3 Chrome/114.0.5735.289 Electron/25.8.4 Safari/537.36" etag="wH0lzgq_oSPoROMm78_E" version="22.0.3" type="device">
  <diagram name="Page-1" id="HNYZKfiPQVPJqZJRvPU6">
    <mxGraphModel dx="1789" dy="1008" grid="0" gridSize="10" guides="1" tooltips="1" connect="1" arrows="1" fold="1" page="0" pageScale="1" pageWidth="827" pageHeight="1169" math="0" shadow="0">
      <root>
        <mxCell id="0" />
        <mxCell id="1" parent="0" />
        <mxCell id="n6Ccjh8QE3eLmOjlMwEh-1" value="Datatypes" style="rounded=0;whiteSpace=wrap;html=1;fontSize=16;" parent="1" vertex="1">
          <mxGeometry x="416" y="12" width="120" height="60" as="geometry" />
        </mxCell>
        <mxCell id="n6Ccjh8QE3eLmOjlMwEh-2" value="Member initialisation" style="rounded=0;whiteSpace=wrap;html=1;fontSize=16;" parent="1" vertex="1">
          <mxGeometry x="274" y="-67" width="120" height="60" as="geometry" />
        </mxCell>
        <mxCell id="D6RZGJaK25wuzyMA6K7w-1" value="Encapsulation&lt;br&gt;Abstraction" style="rounded=0;whiteSpace=wrap;html=1;fontSize=16;" parent="1" vertex="1">
          <mxGeometry x="132" y="-70" width="120" height="60" as="geometry" />
        </mxCell>
        <mxCell id="D6RZGJaK25wuzyMA6K7w-3" value="Reusability" style="text;html=1;strokeColor=none;fillColor=none;align=center;verticalAlign=middle;whiteSpace=wrap;rounded=0;fontSize=16;" parent="1" vertex="1">
          <mxGeometry x="-451" y="-118" width="60" height="30" as="geometry" />
        </mxCell>
        <mxCell id="D6RZGJaK25wuzyMA6K7w-4" value="Between an object and its internals&lt;br&gt;Between an object and other objects of other classes" style="rounded=0;whiteSpace=wrap;html=1;fontSize=16;" parent="1" vertex="1">
          <mxGeometry x="-295" y="-67" width="395" height="60" as="geometry" />
        </mxCell>
        <mxCell id="ZgRLeYDq9o32f6SUCcQa-1" value="class or struct" style="rounded=0;whiteSpace=wrap;html=1;fontSize=16;" parent="1" vertex="1">
          <mxGeometry x="416" y="-70" width="120" height="60" as="geometry" />
        </mxCell>
        <mxCell id="ZgRLeYDq9o32f6SUCcQa-2" value="Constructor" style="rounded=0;whiteSpace=wrap;html=1;fontSize=16;" parent="1" vertex="1">
          <mxGeometry x="277" y="12" width="120" height="60" as="geometry" />
        </mxCell>
        <mxCell id="ZgRLeYDq9o32f6SUCcQa-4" value="Scope resolution" style="rounded=0;whiteSpace=wrap;html=1;fontSize=16;" parent="1" vertex="1">
          <mxGeometry x="416" y="91" width="120" height="60" as="geometry" />
        </mxCell>
        <mxCell id="ZgRLeYDq9o32f6SUCcQa-5" value="Inheritance" style="rounded=0;whiteSpace=wrap;html=1;fontSize=16;" parent="1" vertex="1">
          <mxGeometry x="-158" y="6" width="120" height="60" as="geometry" />
        </mxCell>
        <mxCell id="ZgRLeYDq9o32f6SUCcQa-8" value="Friends" style="rounded=0;whiteSpace=wrap;html=1;fontSize=16;" parent="1" vertex="1">
          <mxGeometry x="-158" y="89" width="120" height="60" as="geometry" />
        </mxCell>
        <mxCell id="ZgRLeYDq9o32f6SUCcQa-9" value="Polymorphism" style="rounded=0;whiteSpace=wrap;html=1;fontSize=16;" parent="1" vertex="1">
          <mxGeometry x="-481" y="-70" width="120" height="60" as="geometry" />
        </mxCell>
        <mxCell id="XQac6Xv2_LJeBcRRvreh-1" value="Basics" style="text;html=1;strokeColor=none;fillColor=none;align=center;verticalAlign=middle;whiteSpace=wrap;rounded=0;fontSize=16;" vertex="1" parent="1">
          <mxGeometry x="446" y="-128" width="60" height="30" as="geometry" />
        </mxCell>
        <mxCell id="XQac6Xv2_LJeBcRRvreh-2" value="Construction" style="text;html=1;strokeColor=none;fillColor=none;align=center;verticalAlign=middle;whiteSpace=wrap;rounded=0;fontSize=16;" vertex="1" parent="1">
          <mxGeometry x="307" y="-122" width="60" height="30" as="geometry" />
        </mxCell>
        <mxCell id="XQac6Xv2_LJeBcRRvreh-3" value="Interface" style="text;html=1;strokeColor=none;fillColor=none;align=center;verticalAlign=middle;whiteSpace=wrap;rounded=0;fontSize=16;" vertex="1" parent="1">
          <mxGeometry x="162" y="-114" width="60" height="30" as="geometry" />
        </mxCell>
        <mxCell id="XQac6Xv2_LJeBcRRvreh-4" value="&lt;span style=&quot;color: rgb(240, 240, 240); font-family: Helvetica; font-size: 16px; font-style: normal; font-variant-ligatures: normal; font-variant-caps: normal; font-weight: 400; letter-spacing: normal; orphans: 2; text-align: center; text-indent: 0px; text-transform: none; widows: 2; word-spacing: 0px; -webkit-text-stroke-width: 0px; background-color: rgb(24, 20, 29); text-decoration-thickness: initial; text-decoration-style: initial; text-decoration-color: initial; float: none; display: inline !important;&quot;&gt;Relationships&lt;/span&gt;" style="text;whiteSpace=wrap;html=1;fontSize=16;" vertex="1" parent="1">
          <mxGeometry x="-162.00275862068952" y="-108.00241379310337" width="124" height="41" as="geometry" />
        </mxCell>
        <mxCell id="XQac6Xv2_LJeBcRRvreh-5" value="Miscellaneous" style="rounded=0;whiteSpace=wrap;html=1;fontSize=16;" vertex="1" parent="1">
          <mxGeometry x="416" y="178" width="120" height="60" as="geometry" />
        </mxCell>
      </root>
    </mxGraphModel>
  </diagram>
</mxfile>
